<svg width="199" height="32" viewBox="0 0 199 32" fill="none" xmlns="http://www.w3.org/2000/svg">
<path d="M96.5593 16.798C96.5593 17.158 96.5353 17.482 96.4873 17.77H89.1973C89.2573 18.49 89.5093 19.054 89.9533 19.462C90.3973 19.87 90.9433 20.074 91.5913 20.074C92.5273 20.074 93.1933 19.672 93.5893 18.868H96.3073C96.0193 19.828 95.4673 20.62 94.6513 21.244C93.8353 21.856 92.8333 22.162 91.6453 22.162C90.6853 22.162 89.8213 21.952 89.0533 21.532C88.2973 21.1 87.7033 20.494 87.2713 19.714C86.8513 18.934 86.6413 18.034 86.6413 17.014C86.6413 15.982 86.8513 15.076 87.2713 14.296C87.6913 13.516 88.2793 12.916 89.0353 12.496C89.7913 12.076 90.6613 11.866 91.6453 11.866C92.5933 11.866 93.4393 12.07 94.1833 12.478C94.9393 12.886 95.5213 13.468 95.9293 14.224C96.3493 14.968 96.5593 15.826 96.5593 16.798ZM93.9493 16.078C93.9373 15.43 93.7033 14.914 93.2473 14.53C92.7913 14.134 92.2333 13.936 91.5733 13.936C90.9493 13.936 90.4213 14.128 89.9893 14.512C89.5693 14.884 89.3113 15.406 89.2153 16.078H93.9493ZM102.917 19.678L105.437 12.028H108.119L104.429 22H101.369L97.6967 12.028H100.397L102.917 19.678ZM114.052 19.678L116.572 12.028H119.254L115.564 22H112.504L108.832 12.028H111.532L114.052 19.678ZM120.381 16.978C120.381 15.97 120.579 15.076 120.975 14.296C121.383 13.516 121.929 12.916 122.613 12.496C123.309 12.076 124.083 11.866 124.935 11.866C125.679 11.866 126.327 12.016 126.879 12.316C127.443 12.616 127.893 12.994 128.229 13.45V12.028H130.767V22H128.229V20.542C127.905 21.01 127.455 21.4 126.879 21.712C126.315 22.012 125.661 22.162 124.917 22.162C124.077 22.162 123.309 21.946 122.613 21.514C121.929 21.082 121.383 20.476 120.975 19.696C120.579 18.904 120.381 17.998 120.381 16.978ZM128.229 17.014C128.229 16.402 128.109 15.88 127.869 15.448C127.629 15.004 127.305 14.668 126.897 14.44C126.489 14.2 126.051 14.08 125.583 14.08C125.115 14.08 124.683 14.194 124.287 14.422C123.891 14.65 123.567 14.986 123.315 15.43C123.075 15.862 122.955 16.378 122.955 16.978C122.955 17.578 123.075 18.106 123.315 18.562C123.567 19.006 123.891 19.348 124.287 19.588C124.695 19.828 125.127 19.948 125.583 19.948C126.051 19.948 126.489 19.834 126.897 19.606C127.305 19.366 127.629 19.03 127.869 18.598C128.109 18.154 128.229 17.626 128.229 17.014ZM139.115 11.884C140.303 11.884 141.263 12.262 141.995 13.018C142.727 13.762 143.093 14.806 143.093 16.15V22H140.573V16.492C140.573 15.7 140.375 15.094 139.979 14.674C139.583 14.242 139.043 14.026 138.359 14.026C137.663 14.026 137.111 14.242 136.703 14.674C136.307 15.094 136.109 15.7 136.109 16.492V22H133.589V12.028H136.109V13.27C136.445 12.838 136.871 12.502 137.387 12.262C137.915 12.01 138.491 11.884 139.115 11.884ZM148.783 14.098V18.922C148.783 19.258 148.861 19.504 149.017 19.66C149.185 19.804 149.461 19.876 149.845 19.876H151.015V22H149.431C147.307 22 146.245 20.968 146.245 18.904V14.098H145.057V12.028H146.245V9.562H148.783V12.028H151.015V14.098H148.783ZM162.602 12.028V22H160.064V20.74C159.74 21.172 159.314 21.514 158.786 21.766C158.27 22.006 157.706 22.126 157.094 22.126C156.314 22.126 155.624 21.964 155.024 21.64C154.424 21.304 153.95 20.818 153.602 20.182C153.266 19.534 153.098 18.766 153.098 17.878V12.028H155.618V17.518C155.618 18.31 155.816 18.922 156.212 19.354C156.608 19.774 157.148 19.984 157.832 19.984C158.528 19.984 159.074 19.774 159.47 19.354C159.866 18.922 160.064 18.31 160.064 17.518V12.028H162.602ZM167.968 13.576C168.292 13.048 168.712 12.634 169.228 12.334C169.756 12.034 170.356 11.884 171.028 11.884V14.53H170.362C169.57 14.53 168.97 14.716 168.562 15.088C168.166 15.46 167.968 16.108 167.968 17.032V22H165.448V12.028H167.968V13.576ZM182.355 16.798C182.355 17.158 182.331 17.482 182.283 17.77H174.993C175.053 18.49 175.305 19.054 175.749 19.462C176.193 19.87 176.739 20.074 177.387 20.074C178.323 20.074 178.989 19.672 179.385 18.868H182.103C181.815 19.828 181.263 20.62 180.447 21.244C179.631 21.856 178.629 22.162 177.441 22.162C176.481 22.162 175.617 21.952 174.849 21.532C174.093 21.1 173.499 20.494 173.067 19.714C172.647 18.934 172.437 18.034 172.437 17.014C172.437 15.982 172.647 15.076 173.067 14.296C173.487 13.516 174.075 12.916 174.831 12.496C175.587 12.076 176.457 11.866 177.441 11.866C178.389 11.866 179.235 12.07 179.979 12.478C180.735 12.886 181.317 13.468 181.725 14.224C182.145 14.968 182.355 15.826 182.355 16.798ZM179.745 16.078C179.733 15.43 179.499 14.914 179.043 14.53C178.587 14.134 178.029 13.936 177.369 13.936C176.745 13.936 176.217 14.128 175.785 14.512C175.365 14.884 175.107 15.406 175.011 16.078H179.745Z" fill="white"/>
<circle cx="186" cy="20" r="2" fill="white"/>
<path d="M71.2492 23.75H60.7496H57.3747C53.9998 23.75 53.9998 22.125 53.9998 22.125V18.5H47V25.25C47 25.25 47 30.75 53.9998 30.75H60.7496H71.2492H74.8741C74.8741 30.75 78.249 30.5 78.249 27.25C78.249 23.75 74.8741 23.75 74.8741 23.75H71.2492Z" fill="black"/>
<path fill-rule="evenodd" clip-rule="evenodd" d="M47 18.5V7.5C47.0001 1 53.9998 1 53.9998 1H60.7496L71.2492 1C78.499 1 78.249 7.5 78.249 7.5V13.25C78.249 13.25 78.499 18.5 71.2492 18.5H60.7496C57.3747 18.5 57.3747 15.875 57.3747 15.875C57.3747 15.875 57.3747 13.25 60.7496 13.25H68.6243C71.2492 13.25 71.2492 10.375 71.2492 10.375C71.2492 10.375 71.2492 8 68.6243 8H65.9994H60.7496H57.3747C57.3747 8 53.9998 8 53.9998 10.375V13.25H47.0001L40.0003 15.875L47 18.5Z" fill="black"/>
<path d="M60.7496 18.5C64.1244 18.5 63.9995 18.5 71.2492 18.5M60.7496 18.5C57.3747 18.5 57.3747 15.875 57.3747 15.875C57.3747 15.875 57.3747 13.25 60.7496 13.25M60.7496 18.5H71.2492M60.7496 13.25C63.9995 13.25 65.9994 13.25 68.6243 13.25M60.7496 13.25H68.6243M60.7496 23.75H71.2492H74.8741C74.8741 23.75 78.249 23.75 78.249 27.25C78.249 30.5 74.8741 30.75 74.8741 30.75H71.2492H60.7496M60.7496 23.75C60.7496 23.75 60.7496 23.75 57.3747 23.75M60.7496 23.75H57.3747M60.7496 30.75C60.7496 30.75 60.7496 30.75 53.9998 30.75M60.7496 30.75H53.9998M53.9998 30.75C47 30.75 47 25.25 47 25.25V18.5M47 18.5C47 18.5 47 14.25 47 7.5M47 18.5H53.9998V22.125C53.9998 22.125 53.9998 23.75 57.3747 23.75M47 18.5V7.5M47 18.5L40.0003 15.875L47.0001 13.25H53.9998M47 7.5C47.0001 1 53.9998 1 53.9998 1H60.7496M60.7496 1C60.7496 1 63.9995 1 71.2492 1M60.7496 1L71.2492 1M71.2492 1C78.499 1 78.249 7.5 78.249 7.5V13.25C78.249 13.25 78.499 18.5 71.2492 18.5M53.9998 13.25C53.9998 13.25 53.9998 13.25 53.9998 10.375M53.9998 13.25V10.375M53.9998 13.25L54 13.5M53.9998 13.25H54.5M53.9998 10.375C53.9998 8 57.3747 8 57.3747 8H60.7496H65.9994M65.9994 8C65.9994 8 67.5992 8 68.6243 8M65.9994 8H68.6243M68.6243 8C71.2492 8 71.2492 10.375 71.2492 10.375C71.2492 10.375 71.2492 13.25 68.6243 13.25" stroke="black"/>
</svg>
